<svg width="404" height="171" viewBox="0 0 404 171" fill="none" xmlns="http://www.w3.org/2000/svg">
<path d="M65 85.5C65 132.72 50.4493 171 32.5 171C14.5507 171 0 132.72 0 85.5C0 38.2797 14.5507 0 32.5 0C50.4493 0 65 38.2797 65 85.5Z" fill="#202056"/>
<path fill-rule="evenodd" clip-rule="evenodd" d="M54.5462 145.602C60.3744 130.27 64 109.021 64 85.5C64 61.9793 60.3744 40.7302 54.5462 25.3977C51.6308 17.7279 48.1836 11.5901 44.4067 7.38744C40.6294 3.18438 36.604 1 32.5 1C28.396 1 24.3706 3.18438 20.5933 7.38744C16.8164 11.5901 13.3692 17.7279 10.4538 25.3977C4.62563 40.7302 1 61.9793 1 85.5C1 109.021 4.62563 130.27 10.4538 145.602C13.3692 153.272 16.8164 159.41 20.5933 163.613C24.3706 167.816 28.396 170 32.5 170C36.604 170 40.6294 167.816 44.4067 163.613C48.1836 159.41 51.6308 153.272 54.5462 145.602ZM32.5 171C50.4493 171 65 132.72 65 85.5C65 38.2797 50.4493 0 32.5 0C14.5507 0 0 38.2797 0 85.5C0 132.72 14.5507 171 32.5 171Z" fill="#ED1C24"/>
<path d="M404 85.5C404 132.72 389.449 171 371.5 171C353.551 171 339 132.72 339 85.5C339 38.2797 353.551 0 371.5 0C389.449 0 404 38.2797 404 85.5Z" fill="#202056"/>
<path fill-rule="evenodd" clip-rule="evenodd" d="M393.546 145.602C399.374 130.27 403 109.021 403 85.5C403 61.9793 399.374 40.7302 393.546 25.3977C390.631 17.7279 387.184 11.5901 383.407 7.38744C379.629 3.18438 375.604 1 371.5 1C367.396 1 363.371 3.18438 359.593 7.38744C355.816 11.5901 352.369 17.7279 349.454 25.3977C343.626 40.7302 340 61.9793 340 85.5C340 109.021 343.626 130.27 349.454 145.602C352.369 153.272 355.816 159.41 359.593 163.613C363.371 167.816 367.396 170 371.5 170C375.604 170 379.629 167.816 383.407 163.613C387.184 159.41 390.631 153.272 393.546 145.602ZM371.5 171C389.449 171 404 132.72 404 85.5C404 38.2797 389.449 0 371.5 0C353.551 0 339 38.2797 339 85.5C339 132.72 353.551 171 371.5 171Z" fill="#ED1C24"/>
<path d="M30 0H372V171H30V0Z" fill="#202056"/>
<path fill-rule="evenodd" clip-rule="evenodd" d="M371 1H31V170H371V1ZM30 0V171H372V0H30Z" fill="#ED1C24"/>
</svg>
